PathFileType	4	(X/Y/Z)	T1_P1_NoVision_NoMovement_0_0-649.trc
DataRate	CameraRate	NumFrames	NumMarkers	Units	OrigDataRate	OrigDataStartFrame	OrigNumFrames
60	60	5	27	m	60	81	649
Frame#	Time	RHip			RKnee			RAnkle			RBigToe			RSmallToe			RHeel			LHip			LKnee			LAnkle			LBigToe			LSmallToe			LHeel			Neck			Head			Nose			RShoulder			RElbow			RWrist			RThumb			RIndex			RPinky			LShoulder			LElbow			LWrist			LThumb			LIndex			LPinky		
		X1	Y1	Z1	X2	Y2	Z2	X3	Y3	Z3	X4	Y4	Z4	X5	Y5	Z5	X6	Y6	Z6	X7	Y7	Z7	X8	Y8	Z8	X9	Y9	Z9	X10	Y10	Z10	X11	Y11	Z11	X12	Y12	Z12	X13	Y13	Z13	X14	Y14	Z14	X15	Y15	Z15	X16	Y16	Z16	X17	Y17	Z17	X18	Y18	Z18	X19	Y19	Z19	X20	Y20	Z20	X21	Y21	Z21	X22	Y22	Z22	X23	Y23	Z23	X24	Y24	Z24	X25	Y25	Z25	X26	Y26	Z26	X27	Y27	Z27
82	1.3666666666666667	-75.59472421040496	3842.7950596860146	-525.4931297838414	300.788709506399	3965.342597805201	-507.72234284758645	632.8553695315355	4125.353006457987	-526.8982838884542	726.4200007596185	4011.803493782465	-503.1130497417656	734.2543115193936	4061.3873734775884	-600.6994082971557	659.1470083527819	4164.096960047561	-515.676243859727	-104.98383973200674	3891.7500528904075	-328.18562299602206	260.2355229734194	4025.479665779091	-335.347677240031	601.2762661005829	4224.176513844981	-353.62333825971865	681.1259927528619	4144.086026252572	-243.422068022555	656.370702886062	4221.834181250215	-223.88918759627006	636.5707586211774	4264.6031570814475	-380.2139716191728	-627.665860968069	3676.1749448614946	-450.6605951017531	-876.7321963568496	3477.0218812948197	-353.98589004086125	-698.078179831992	3509.318190399446	-305.26589913736547	-557.1530214964303	3608.785682533001	-563.0169384882884	-313.9801068968462	3782.2140381002046	-705.6054249661071	-109.99912870615694	3604.9188649131884	-581.9557004104546	-33.02244966418725	3532.0145020156074	-481.63676168712067	-19.47513562678503	3520.2744989022917	-470.39326174570255	-8.265373934696159	3595.108419576185	-537.5184824150263	-615.4317683333092	3822.883695811229	-342.2752380866243	-378.5710845379046	3949.3960003905368	-273.3587128078151	-139.64380090915455	3932.6020953449256	-195.40000474091678	-14.429048786877978	3966.3113429712153	-213.09284636767097	10.003011805976715	3989.3327745527145	-202.5240056406381	-10.298071076813851	3993.8103439374745	-178.53478410883224
83	1.3833333333333333	-76.14862176344207	3849.0788532319175	-527.7267728975452	300.75886498053876	3965.186913811186	-507.49359123104193	632.3382967623334	4124.306773824175	-526.6502668895396	725.1548942858101	4010.9769762132996	-502.8111149241121	734.6372517770457	4061.417186315704	-602.9635279977889	659.5784337227767	4163.263692162882	-515.4527314624829	-105.01462224568392	3891.7646306343822	-328.1915133124224	260.0897867183867	4025.4567092976367	-335.34341854241524	600.1040212021762	4222.688211699792	-353.13561157586463	682.9535838160745	4146.848660289436	-244.44225039843747	658.1955109026451	4226.592615815837	-224.39814389253578	634.6881916135762	4262.300619322703	-379.45834735102295	-627.5530680933288	3676.251055681925	-450.6998395578297	-877.023100697731	3475.2279388203224	-353.1289553557135	-697.4897854499734	3505.5183011446	-302.41395476147324	-557.1566708525833	3608.778116386127	-563.0029384853141	-313.97162258721943	3781.567717277756	-705.401680831265	-110.25364737477258	3604.940649059664	-581.5116810163265	-34.700283600405704	3536.4689077755993	-483.9222712159932	-19.309109935989998	3525.4318669037702	-474.53672694429633	-10.77123498617677	3594.1765304354994	-537.3410363033597	-615.4633446040745	3822.8914437460435	-342.30465989126105	-378.5519562186192	3945.7465076385165	-270.92843824648025	-138.99164490471603	3935.0842640506344	-195.87936447089058	-13.822383130191628	3966.2415616309954	-213.020981518721	10.652007482748123	3989.8971054686845	-202.75284130373223	-11.803151023955905	3999.4415883291126	-178.75241845491985
84	1.4	-76.12704298230321	3848.930895135862	-529.3574799604291	300.9722981744734	3965.3667868727384	-509.1529568314064	633.3437073586049	4124.92273687025	-526.721056606493	723.1695601532742	4011.4158284494056	-502.99546233785964	734.0348884148423	4058.853193025576	-602.3300450705332	659.4476554339412	4160.521142197256	-514.8219249843719	-105.17167919283514	3891.6675068212494	-328.1615336835653	260.1101703045329	4025.4805704214887	-335.32038621188957	599.9787506454545	4226.350704065566	-353.656131127274	683.8001928642572	4145.800115498731	-243.27520915727922	658.6748628759426	4222.809018001879	-223.5832443620919	634.6849832886471	4267.334555782018	-380.3889076132541	-627.5951402695059	3676.2290286143516	-450.70225396962286	-875.8182566521937	3473.067851768333	-352.00435171110234	-696.8522382961249	3501.3993175191827	-299.3447401171121	-557.1517517178893	3608.7818363217857	-562.976038829937	-314.4734248588757	3780.905108494656	-705.2081993845907	-110.32962870974457	3604.9772039437953	-580.6691938402212	-35.977455046994024	3543.246800695332	-485.7196969233479	-19.155762141895906	3529.1591007554803	-477.37679877682274	-11.384476404349202	3593.8445953456344	-537.49438778601	-615.490866250024	3822.9481883597755	-342.350132912133	-378.59142306800254	3946.5355480562575	-271.4342921236122	-139.7239608824588	3931.9844115988644	-195.2504574672721	-13.91012968037451	3965.894845763062	-212.8913563096239	9.812830913637898	3989.204564745839	-202.51332969095884	-13.772824740315617	4002.240147565669	-178.87451784971373
85	1.4166666666666667	-75.83802484920531	3842.0403056144123	-529.2221285334649	300.5142167943191	3965.260588267601	-510.9951990275527	634.7619219786064	4125.796526345868	-526.7259405562453	721.9004132934185	4011.9057274446864	-503.1910073089796	733.0313697444274	4056.508388020081	-599.522412998813	659.5837549255585	4158.786302418069	-514.4109141722156	-105.26695566924192	3891.5974459988183	-328.14229815765424	260.13638626973574	4025.4732056021303	-335.30469639827515	600.2388702376261	4229.618157867775	-354.2062416333322	682.724812081789	4141.347998098873	-240.67972468131987	657.623586158691	4212.785053405774	-221.991242472635	636.8807076095243	4275.357477497125	-382.1744701172934	-627.6339372413024	3676.209217874433	-450.6979282984236	-874.19142019859	3472.7586023612407	-352.16388145949367	-696.5410853441334	3499.3558227512585	-297.8638937577445	-557.141859303937	3608.8118911602883	-562.9510652601593	-315.79405313122925	3780.439537085522	-705.1248484892039	-110.24907374090317	3604.9209691040323	-580.7307899032915	-36.45173414746436	3551.5693515175863	-487.56233421397326	-19.140651749671076	3531.1118211020494	-478.74132903981587	-10.148190043734733	3594.22743733704	-537.978620822499	-615.5003073118737	3823.0869534873523	-342.4263733146478	-378.156005964726	3948.477936129909	-272.5846666072305	-140.81206711480445	3926.735229564557	-194.21464865770116	-14.659360097433035	3965.4177255896657	-212.76422517459176	8.272359266223317	3987.8792061530016	-202.04181963878355	-15.163314343673381	3999.607370662906	-178.34927801139503
86	1.4333333333333331	-75.6850136515689	3834.4299349876474	-527.2763937319511	299.3812965153085	3965.2384066379727	-512.1961500985449	635.6973603434637	4126.287799202085	-526.4529304634613	721.9060649606744	4011.910424447308	-503.15397393228807	732.4495776995528	4056.1584087618926	-597.048031599197	660.081215065121	4160.906776927578	-514.9029270823197	-105.26424810209791	3891.5908331235955	-328.14358069580476	260.1312073022806	4025.4584506575825	-335.3089441361139	600.4117570198096	4230.814014305299	-354.4451743503485	680.3840490459803	4136.321778702872	-238.28751220693056	655.7180676976996	4203.602193143971	-220.80534749761483	640.0343783333046	4283.053392770109	-383.8986536368056	-627.6225797495243	3676.209686946054	-450.69175790823857	-873.3712108514899	3474.9543611401978	-354.0123141915944	-696.4973283049285	3498.9744054326097	-297.6389051558418	-557.134310764691	3608.8490338706115	-562.9362459640142	-317.5941095210496	3780.1205468613625	-705.1337042730239	-110.08598752593818	3604.8152683139897	-581.8504262682488	-36.44519243675286	3557.376797876409	-488.83320455393	-19.301309461127385	3529.956263412094	-477.66182568542115	-8.088872950921123	3595.1851340305693	-538.6294714344181	-615.5019749000493	3823.316151244137	-342.5600073729548	-376.8387813301846	3948.3216923253913	-272.15523595234765	-140.8143087052428	3924.6880557975974	-193.85539931225898	-15.154510257656133	3965.0703604379105	-212.66645850307327	7.36348642507861	3987.005713854829	-201.72829001224673	-15.091186819215498	3995.1929407573743	-177.74994315013132
